inDegrees=no
num_controls=7
num_derivatives=13
num_iterations=129
num_multipliers=7
num_parameters=0
num_slacks=7
num_states=26
objective=0.545133
objective_accelerations=0.041865
objective_balance=0.003853
objective_effort=0.040932
objective_height=0.449031
objective_ligament=0.009452
solver_duration=1381.665555
status=Solve_Succeeded
success=true
DataType=double
version=3
OpenSimVersion=4.5
endheader
time	/jointset/ground_pelvis/pelvis_tilt/value	/jointset/ground_pelvis/pelvis_tx/value	/jointset/ground_pelvis/pelvis_ty/value	/jointset/hip_r/hip_flexion_r/value	/jointset/hip_r/hip_adduction_r/value	/jointset/hip_r/hip_rotation_r/value	/jointset/back/lumbar_extension/value	/jointset/patellofemoral_r/patellar_flexion_r/value	/jointset/knee_r/knee_flexion_r/value	/jointset/knee_r/knee_adduction_r/value	/jointset/knee_r/knee_rotation_r/value	/jointset/ankle_r/ankle_angle_r/value	/jointset/subtalar_r/subtalar_angle_r/value	/jointset/ground_pelvis/pelvis_tilt/speed	/jointset/ground_pelvis/pelvis_tx/speed	/jointset/ground_pelvis/pelvis_ty/speed	/jointset/hip_r/hip_flexion_r/speed	/jointset/hip_r/hip_adduction_r/speed	/jointset/hip_r/hip_rotation_r/speed	/jointset/back/lumbar_extension/speed	/jointset/patellofemoral_r/patellar_flexion_r/speed	/jointset/knee_r/knee_flexion_r/speed	/jointset/knee_r/knee_adduction_r/speed	/jointset/knee_r/knee_rotation_r/speed	/jointset/ankle_r/ankle_angle_r/speed	/jointset/subtalar_r/subtalar_angle_r/speed	/forceset/tau_hip_flexion_r	/forceset/tau_hip_adduction_r	/forceset/tau_hip_rotation_r	/forceset/tau_knee_flexion_r	/forceset/tau_ankle_angle_r	/forceset/tau_subtalar_angle_r	/forceset/tau_lumbar_extension	lambda_cid13_p0	lambda_cid14_p0	lambda_cid14_p1	lambda_cid14_p2	lambda_cid14_p3	lambda_cid14_p4	lambda_cid14_p5	/jointset/ground_pelvis/pelvis_tilt/accel	/jointset/ground_pelvis/pelvis_tx/accel	/jointset/ground_pelvis/pelvis_ty/accel	/jointset/hip_r/hip_flexion_r/accel	/jointset/hip_r/hip_adduction_r/accel	/jointset/hip_r/hip_rotation_r/accel	/jointset/back/lumbar_extension/accel	/jointset/patellofemoral_r/patellar_flexion_r/accel	/jointset/knee_r/knee_flexion_r/accel	/jointset/knee_r/knee_adduction_r/accel	/jointset/knee_r/knee_rotation_r/accel	/jointset/ankle_r/ankle_angle_r/accel	/jointset/subtalar_r/subtalar_angle_r/accel	gamma_cid13_p0	gamma_cid14_p0	gamma_cid14_p1	gamma_cid14_p2	gamma_cid14_p3	gamma_cid14_p4	gamma_cid14_p5
0	-0.00651495180297515	0.0962601102620772	0.9427240828560975	0.1762555222360518	-0.2321526844652495	-0.2616379080382502	-0.038598046466844	0.07317863873451129	0.07317863873451017	0.1745325215948182	0.1745302512154666	0.03247278518263602	-0.003452007692511723	0	0	0	0	0	0	0	0	0	0	0	0	0	0.2363301008120379	-0.1526192173747094	-0.04383467379279171	-0.4019932687417003	0.373454148495889	-0.148200316709102	-0.1335495304816859	-39.07569540588656	69.29741423476582	-42.30068417531531	-4.137723921269189	-15.4678868463022	-682.5237642318441	52.79584183703977	-2.991335192174075	-1.680969611394894	-0.687708967154028	10.39827868765225	0.2829402034550132	2.243348698026636	-5.486132423532587	8.667629298482657	8.667629298482023	-2.918474572431782	0.158568730042949	2.044631780089006	0.7514991206860139	8.8890926702019e-08	5.756774612179609e-08	-5.69585978449733e-07	1.805679230709971e-07	2.394109832454804e-08	5.564312532433114e-08	-2.723188809179057e-07
0.01	-0.006657432074326726	0.09617810460475427	0.9426909350365118	0.176759144359433	-0.2321375564221542	-0.261517974413141	-0.03887450373550037	0.07359940412928428	0.07359940412928606	0.1743871375830946	0.1745269390841363	0.03257300111085844	-0.003413955293496991	-0.0284081299612183	-0.01623083057474289	-0.006612611483856333	0.1001898846803249	0.002958231130509941	0.02385958594179874	-0.05488662073990275	0.08378581685888492	0.0837858168588876	-0.02882518219697805	-0.0006340929726219568	0.0200575892461889	0.007543912808333989	0.2341694087534902	-0.1657167634755412	-0.04365539511574099	-0.4030283328847096	0.3750300191717107	-0.1364274529821811	-0.1311334966799348	-39.08965759442994	70.29784665431518	-37.09269033967463	-4.876494945404073	-17.85301045162067	-682.909316372129	63.11207865572272	-2.752358267459893	-1.56858985851713	-0.645483245395955	9.749167925217773	0.2920970063929178	2.438236938196146	-5.429201950704192	8.178950787168201	8.178950787168803	-2.826868740988743	-0.1700952711080922	1.988499341989775	0.745783085459622	1.170012721109727e-07	5.932395128680147e-08	-7.427411395742891e-07	1.659285675768666e-07	5.107447080962672e-08	-1.242713599923106e-07	-3.066757631220807e-07
0.02	-0.007081354919157878	0.0959389006260836	0.9425921719008088	0.1782486302430173	-0.2320948795800452	-0.2611632502494246	-0.03968768222185248	0.07484700627415496	0.07484700627415787	0.17396103600987	0.1745181466310045	0.03287422830056436	-0.003302474621488437	-0.05628851469702152	-0.03143966426954928	-0.01312306322347877	0.1971727520404595	0.005509759802776661	0.04695810772117917	-0.107344243539224	0.1653673500208416	0.1653673500208419	-0.05614351230027256	-0.001096064352973822	0.04020225229661667	0.01468565459876932	0.2320087166949081	-0.178814309576372	-0.04347611643865433	-0.4040633970277437	0.3766058898475252	-0.1246545892552612	-0.1287174628782071	-39.13090339121211	71.37497318140019	-31.89096948667282	-5.591759275114434	-20.34359733021238	-682.0728529570159	73.20087173165109	-2.885786147091173	-1.476570235407489	-0.6672770183072518	9.756875223614182	0.2015997118063541	2.091135865542802	-5.000332835416362	8.22677255909702	8.226772559095361	-2.617104153695031	0.1929930484971432	2.062046540936894	0.6710649171062948	1.451116175199264e-07	6.108015645180687e-08	-9.158963006988453e-07	1.512892120827362e-07	7.820784329470541e-08	-3.041858453089523e-07	-3.410326453262556e-07
0.03	-0.007781226341647917	0.09555126581508187	0.9424285417658402	0.180693654457038	-0.2320287625120142	-0.2605836565161668	-0.04101323104321933	0.07690016702385843	0.07690016702386156	0.1732695313745022	0.1745077268396807	0.03337566583880886	-0.003121978682605576	-0.08352454012567623	-0.04605993229560222	-0.01960397689219745	0.2913942943686514	0.007661071343484161	0.06885033469352081	-0.157406920378741	0.2448920697463333	0.2448920697463303	-0.08192109539383367	-0.00100961815779975	0.05992435092451637	0.02132264702729491	0.2230697016803929	-0.1853924000162614	-0.04104030549153705	-0.3921775086983795	0.3574848258763993	-0.1112115332698488	-0.1218377614557268	-39.19842736580238	65.81817290256485	-27.11405581200021	-6.252299473976129	-17.09691628789186	-681.0130611859174	81.37270291125148	-2.618309412415765	-1.450634489449662	-0.6387120735590376	9.189134925442406	0.213897166141306	2.22176744872146	-4.95544505510294	7.75938301729071	7.75938301729125	-2.522768364089126	-0.0867263485899069	1.903185749853408	0.6462555216316465	1.642540108155814e-07	6.60811610629677e-08	-1.028077902528799e-06	1.641863911587923e-07	9.202608271801669e-08	-4.007625807766818e-07	-3.801893517849401e-07
0.04	-0.00874861775275221	0.09501825244317082	0.9422000597877038	0.1840677623319504	-0.2319427322703889	-0.259788440246059	-0.0428286486223567	0.0797373872384225	0.079737387238424	0.172327314312818	0.1744975321595616	0.0340695032085601	-0.002877864996256264	-0.109792512420877	-0.06051537645141874	-0.02609343185709071	0.3829894842176723	0.009492394521726146	0.09008261509152592	-0.2053179950936161	0.3221792429924439	0.3221792429924457	-0.1062859975634935	-0.001051042107322069	0.07868221859789321	0.02740920409205887	0.2141306866658973	-0.1919704904561523	-0.03860449454442363	-0.3802916203690025	0.3383637619052767	-0.09776847728443719	-0.1149580600332336	-39.29091083687325	60.33096729870599	-22.33692505916087	-6.899201929790541	-13.95368230979918	-678.8620605809369	89.34851953788564	-2.692175520400494	-1.443605461360107	-0.6689852775421711	9.231604727779999	0.1376020393132423	1.959146550675415	-4.570012410488067	7.779263263220792	7.779263263220743	-2.334567968914735	0.1674190195579481	1.869200350032424	0.5609778443539862	1.832114978820961e-07	7.114906875549255e-08	-1.139002317569173e-06	1.776513338342338e-07	1.055697833153121e-07	-4.956210121238153e-07	-4.194450236921711e-07
